<svg width="19" height="18" viewBox="0 0 19 18" fill="none" xmlns="http://www.w3.org/2000/svg">
<path d="M15.7549 7.5H5.25488V5.25C5.25488 4.42275 5.92763 3.75 6.75488 3.75C7.58213 3.75 8.25488 4.42275 8.25488 5.25H9.75488C9.75488 3.5955 8.40938 2.25 6.75488 2.25C5.10038 2.25 3.75488 3.5955 3.75488 5.25V7.5H2.25488C2.05597 7.5 1.8652 7.57902 1.72455 7.71967C1.5839 7.86032 1.50488 8.05109 1.50488 8.25V9.75C1.50488 11.7045 2.76038 13.3672 4.50488 13.9875V16.5H6.00488V14.25H12.0049V16.5H13.5049V13.9875C15.2494 13.3672 16.5049 11.7045 16.5049 9.75V8.25C16.5049 8.05109 16.4259 7.86032 16.2852 7.71967C16.1446 7.57902 15.9538 7.5 15.7549 7.5ZM15.0049 9.75C15.0049 11.4045 13.6594 12.75 12.0049 12.75H6.00488C4.35038 12.75 3.00488 11.4045 3.00488 9.75V9H15.0049V9.75Z" fill="#1A202C"/>
</svg>
