<svg width="19" height="18" viewBox="0 0 19 18" fill="none" xmlns="http://www.w3.org/2000/svg">
<g clip-path="url(#clip0)">
<path d="M13.5049 8.43652H3.37988V4.78027C3.381 4.40765 3.52951 4.05062 3.79299 3.78713C4.05648 3.52365 4.41351 3.37514 4.78613 3.37402H13.2236C13.5962 3.37514 13.9533 3.52365 14.2168 3.78713C14.4802 4.05062 14.6288 4.40765 14.6299 4.78027V8.43652H13.5049Z" stroke="#1A202C" stroke-width="1.5" stroke-linecap="round" stroke-linejoin="round"/>
<path d="M1.69238 14.624V10.6865C1.69414 10.0903 1.93176 9.51906 2.35334 9.09748C2.77491 8.6759 3.34619 8.43829 3.94238 8.43652H14.0674C14.6636 8.43829 15.2348 8.6759 15.6564 9.09748C16.078 9.51906 16.3156 10.0903 16.3174 10.6865V14.624" stroke="#1A202C" stroke-width="1.5" stroke-linecap="round" stroke-linejoin="round"/>
<path d="M9.00488 8.4375V7.875C9.00572 7.57689 9.12451 7.29123 9.33531 7.08043C9.54611 6.86963 9.83177 6.75083 10.1299 6.75H12.9424C13.2405 6.75083 13.5262 6.86963 13.737 7.08043C13.9478 7.29123 14.0665 7.57689 14.0674 7.875V8.4375" stroke="#1A202C" stroke-width="1.5" stroke-linecap="round" stroke-linejoin="round"/>
</g>
<defs>
<clipPath id="clip0">
<rect width="18" height="18" fill="white" transform="translate(0.00488281)"/>
</clipPath>
</defs>
</svg>
