<svg width="17" height="14" viewBox="0 0 17 14" fill="none" xmlns="http://www.w3.org/2000/svg">
<path d="M15.6875 0.8125H1.0625C0.751367 0.8125 0.5 1.06387 0.5 1.375V12.625C0.5 12.9361 0.751367 13.1875 1.0625 13.1875H15.6875C15.9986 13.1875 16.25 12.9361 16.25 12.625V1.375C16.25 1.06387 15.9986 0.8125 15.6875 0.8125ZM14.2672 2.72676L8.72129 7.04219C8.58418 7.14941 8.39258 7.14941 8.25547 7.04219L2.70781 2.72676C2.6869 2.71062 2.67156 2.68834 2.66395 2.66305C2.65633 2.63775 2.65682 2.61071 2.66535 2.58571C2.67388 2.5607 2.69002 2.539 2.7115 2.52363C2.73298 2.50826 2.75874 2.5 2.78516 2.5H14.1898C14.2163 2.5 14.242 2.50826 14.2635 2.52363C14.285 2.539 14.3011 2.5607 14.3097 2.58571C14.3182 2.61071 14.3187 2.63775 14.3111 2.66305C14.3034 2.68834 14.2881 2.71062 14.2672 2.72676Z" fill="#38B2AC"/>
</svg>
