<svg width="14" height="14" viewBox="0 0 14 14" fill="none" xmlns="http://www.w3.org/2000/svg">
<path d="M12.75 0.75H1.25C0.973437 0.75 0.75 0.973437 0.75 1.25V12.75C0.75 13.0266 0.973437 13.25 1.25 13.25H12.75C13.0266 13.25 13.25 13.0266 13.25 12.75V1.25C13.25 0.973437 13.0266 0.75 12.75 0.75ZM11.3062 4.39844H10.3078C9.525 4.39844 9.37344 4.77031 9.37344 5.31719V6.52187H11.2422L10.9984 8.40781H9.37344V13.25H7.425V8.40938H5.79531V6.52187H7.425V5.13125C7.425 3.51719 8.41094 2.6375 9.85156 2.6375C10.5422 2.6375 11.1344 2.68906 11.3078 2.7125V4.39844H11.3062Z" fill="#4A5568"/>
</svg>
