<svg width="14" height="14" viewBox="0 0 14 14" fill="none" xmlns="http://www.w3.org/2000/svg">
<path d="M7.00007 4.91736C5.8532 4.91736 4.91726 5.8533 4.91726 7.00017C4.91726 8.14705 5.8532 9.08298 7.00007 9.08298C8.14695 9.08298 9.08289 8.14705 9.08289 7.00017C9.08289 5.8533 8.14695 4.91736 7.00007 4.91736ZM13.2469 7.00017C13.2469 6.13767 13.2548 5.28298 13.2063 4.42205C13.1579 3.42205 12.9298 2.53455 12.1985 1.8033C11.4657 1.07048 10.5798 0.843922 9.57976 0.795484C8.71726 0.747047 7.86257 0.754859 7.00164 0.754859C6.13914 0.754859 5.28445 0.747047 4.42351 0.795484C3.42351 0.843922 2.53601 1.07205 1.80476 1.8033C1.07195 2.53611 0.845387 3.42205 0.796949 4.42205C0.748512 5.28455 0.756324 6.13923 0.756324 7.00017C0.756324 7.86111 0.748512 8.71736 0.796949 9.5783C0.845387 10.5783 1.07351 11.4658 1.80476 12.197C2.53757 12.9299 3.42351 13.1564 4.42351 13.2049C5.28601 13.2533 6.1407 13.2455 7.00164 13.2455C7.86414 13.2455 8.71882 13.2533 9.57976 13.2049C10.5798 13.1564 11.4673 12.9283 12.1985 12.197C12.9313 11.4642 13.1579 10.5783 13.2063 9.5783C13.2563 8.71736 13.2469 7.86267 13.2469 7.00017ZM7.00007 10.2049C5.22664 10.2049 3.79539 8.77361 3.79539 7.00017C3.79539 5.22673 5.22664 3.79548 7.00007 3.79548C8.77351 3.79548 10.2048 5.22673 10.2048 7.00017C10.2048 8.77361 8.77351 10.2049 7.00007 10.2049ZM10.336 4.41267C9.92195 4.41267 9.58757 4.0783 9.58757 3.66423C9.58757 3.25017 9.92195 2.9158 10.336 2.9158C10.7501 2.9158 11.0844 3.25017 11.0844 3.66423C11.0846 3.76256 11.0653 3.85993 11.0277 3.95079C10.9902 4.04166 10.935 4.12421 10.8655 4.19373C10.796 4.26326 10.7134 4.31838 10.6226 4.35595C10.5317 4.39352 10.4343 4.4128 10.336 4.41267Z" fill="#4A5568"/>
</svg>
