<svg width="17" height="17" viewBox="0 0 17 17" fill="none" xmlns="http://www.w3.org/2000/svg">
<path d="M11.5098 4.00488H14.0098" stroke="#4FD1C5" stroke-width="1.5" stroke-linecap="round" stroke-linejoin="round"/>
<path d="M2.00977 4.00488H9.50976" stroke="#4FD1C5" stroke-width="1.5" stroke-linecap="round" stroke-linejoin="round"/>
<path d="M11.5098 12.0039H14.0098" stroke="#4FD1C5" stroke-width="1.5" stroke-linecap="round" stroke-linejoin="round"/>
<path d="M2.00977 12.0039H9.50976" stroke="#4FD1C5" stroke-width="1.5" stroke-linecap="round" stroke-linejoin="round"/>
<path d="M6.50977 8.00488H14.0098" stroke="#4FD1C5" stroke-width="1.5" stroke-linecap="round" stroke-linejoin="round"/>
<path d="M2.00977 8.00488H4.50977" stroke="#4FD1C5" stroke-width="1.5" stroke-linecap="round" stroke-linejoin="round"/>
<path d="M10.5098 5.00488C11.0621 5.00488 11.5098 4.55717 11.5098 4.00488C11.5098 3.4526 11.0621 3.00488 10.5098 3.00488C9.95748 3.00488 9.50977 3.4526 9.50977 4.00488C9.50977 4.55717 9.95748 5.00488 10.5098 5.00488Z" stroke="#4FD1C5" stroke-width="1.5" stroke-linecap="round" stroke-linejoin="round"/>
<path d="M5.50977 9.00391C6.06205 9.00391 6.50977 8.55619 6.50977 8.00391C6.50977 7.45162 6.06205 7.00391 5.50977 7.00391C4.95748 7.00391 4.50977 7.45162 4.50977 8.00391C4.50977 8.55619 4.95748 9.00391 5.50977 9.00391Z" stroke="#4FD1C5" stroke-width="1.5" stroke-linecap="round" stroke-linejoin="round"/>
<path d="M10.5098 13.0039C11.0621 13.0039 11.5098 12.5562 11.5098 12.0039C11.5098 11.4516 11.0621 11.0039 10.5098 11.0039C9.95748 11.0039 9.50977 11.4516 9.50977 12.0039C9.50977 12.5562 9.95748 13.0039 10.5098 13.0039Z" stroke="#4FD1C5" stroke-width="1.5" stroke-linecap="round" stroke-linejoin="round"/>
</svg>
