<svg width="21" height="20" viewBox="0 0 21 20" fill="none" xmlns="http://www.w3.org/2000/svg">
<path d="M11.9047 8.4C13.2047 8.4 14.0047 6.5 14.0047 5.3C14.0047 4.3 13.5047 3.1 12.5047 3.1C11.2047 3.1 10.4047 5 10.4047 6.2C10.4047 7.2 10.9047 8.4 11.9047 8.4ZM8.10469 8.4C9.10469 8.4 9.60469 7.2 9.60469 6.2C9.60469 4.9 8.80469 3 7.50469 3C6.50469 3 6.00469 4.2 6.00469 5.2C5.90469 6.5 6.70469 8.4 8.10469 8.4ZM15.5047 7.4C14.2047 7.4 13.3047 9.2 13.3047 10.5C13.3047 11.4 13.7047 12.3 14.6047 12.3C15.9047 12.3 16.8047 10.5 16.8047 9.2C16.8047 8.3 16.3047 7.4 15.5047 7.4ZM6.80469 10.5C6.80469 9.2 5.80469 7.4 4.60469 7.4C3.70469 7.4 3.30469 8.3 3.30469 9.2C3.30469 10.5 4.30469 12.3 5.50469 12.3C6.40469 12.3 6.80469 11.4 6.80469 10.5ZM10.0047 10.3C8.00469 10.3 5.30469 13.5 5.30469 15.7C5.30469 16.7 6.00469 17 6.80469 17C8.00469 17 8.90469 16.2 10.0047 16.2C11.0047 16.2 11.9047 17 13.0047 17C13.8047 17 14.7047 16.8 14.7047 15.7C14.7047 13.5 12.0047 10.3 10.0047 10.3Z" fill="#805AD5"/>
</svg>
