<svg width="20" height="20" viewBox="0 0 20 20" fill="none" xmlns="http://www.w3.org/2000/svg">
<path d="M19.751 18.0644L13.9347 12.2473C14.872 10.9592 15.3763 9.40683 15.3747 7.81383C15.3747 3.6443 11.9824 0.251953 7.81285 0.251953C3.64332 0.251953 0.250977 3.6443 0.250977 7.81383C0.250977 11.9834 3.64332 15.3757 7.81285 15.3757C9.40585 15.3772 10.9582 14.873 12.2463 13.9357L18.0635 19.7519L19.751 18.0644ZM7.81285 12.9874C6.78948 12.9875 5.78906 12.6841 4.93812 12.1156C4.08718 11.5471 3.42393 10.7391 3.03226 9.7936C2.64059 8.84815 2.53809 7.80778 2.73771 6.80406C2.93734 5.80035 3.43013 4.87838 4.15377 4.15474C4.8774 3.43111 5.79937 2.93832 6.80309 2.73869C7.8068 2.53906 8.84717 2.64157 9.79262 3.03324C10.7381 3.42491 11.5462 4.08815 12.1146 4.9391C12.6831 5.79004 12.9865 6.79045 12.9864 7.81383C12.9848 9.18545 12.4392 10.5004 11.4693 11.4703C10.4995 12.4402 9.18448 12.9858 7.81285 12.9874Z" fill="black"/>
</svg>
