<svg width="14" height="14" viewBox="0 0 14 14" fill="none" xmlns="http://www.w3.org/2000/svg">
<path d="M7 0C3.13438 0 0 3.13438 0 7C0 10.8656 3.13438 14 7 14C10.8656 14 14 10.8656 14 7C14 3.13438 10.8656 0 7 0ZM10.3641 5.27656C10.3687 5.35 10.3687 5.42656 10.3687 5.50156C10.3687 7.79531 8.62187 10.4375 5.42969 10.4375C4.44531 10.4375 3.53281 10.1516 2.76406 9.65938C2.90469 9.675 3.03906 9.68125 3.18281 9.68125C3.99531 9.68125 4.74219 9.40625 5.3375 8.94063C4.575 8.925 3.93437 8.425 3.71562 7.7375C3.98281 7.77656 4.22344 7.77656 4.49844 7.70625C4.10582 7.62648 3.75293 7.41325 3.49971 7.10279C3.2465 6.79232 3.10857 6.40376 3.10938 6.00313V5.98125C3.33906 6.11094 3.60938 6.19062 3.89219 6.20156C3.65444 6.04312 3.45947 5.82845 3.32455 5.57661C3.18963 5.32476 3.11894 5.04352 3.11875 4.75781C3.11875 4.43437 3.20313 4.13906 3.35469 3.88281C3.79047 4.41928 4.33427 4.85803 4.95073 5.17057C5.56719 5.48311 6.24251 5.66243 6.93281 5.69688C6.6875 4.51719 7.56875 3.5625 8.62813 3.5625C9.12813 3.5625 9.57812 3.77187 9.89531 4.10938C10.2875 4.03594 10.6625 3.88906 10.9969 3.69219C10.8672 4.09375 10.5953 4.43281 10.2344 4.64687C10.5844 4.60938 10.9219 4.5125 11.2344 4.37656C10.9984 4.72344 10.7031 5.03125 10.3641 5.27656Z" fill="#4A5568"/>
</svg>
